<?xml version="1.0" encoding="utf-8"?>
<!-- Generator: Adobe Illustrator 22.1.0, SVG Export Plug-In . SVG Version: 6.00 Build 0)  -->
<svg version="1.1" id="Layer_1" xmlns="http://www.w3.org/2000/svg" xmlns:xlink="http://www.w3.org/1999/xlink" x="0px" y="0px"
	 viewBox="0 0 24 24" style="enable-background:new 0 0 24 24;" xml:space="preserve">
<style type="text/css">
	.st0{fill:rgba(255, 255, 255, 0);}
	.st1{fill:#FFFFFF;}
</style>
<title>google-plus-20</title>
<desc>Created with Sketch.</desc>
<g id="google-plus-20">
	<g>
		<g transform="translate(-18454.000000, -1647.000000)">
			<rect x="18454" y="1647" class="st0" width="24" height="24"/>
			<rect id="Background" x="18454" y="1647" class="st0" width="24" height="24"/>
			<g id="Group" transform="translate(3.000000, 6.000000)">
				<path id="Combined-Shape" class="st1" d="M18464.1,1648.9l-1.1,1c-1.4-1.3-3.5-1.4-5.2-0.4c-1.6,1-2.4,3-1.8,4.8
					c0.5,1.8,2.2,3.1,4.1,3.1c1,0.1,1.9-0.2,2.6-0.9c0.7-0.6,1.1-1.5,1.2-2.5h-3.6v-1.5h5.2c0,0.2,0,0.4,0,0.6c0,3-1.5,5.8-5.4,5.8
					c-2.6,0-4.9-1.7-5.6-4.2c-0.7-2.5,0.3-5.2,2.6-6.5C18459.4,1646.9,18462.2,1647.1,18464.1,1648.9z M18471.6,1652.6v1.5h-1.5v1.5
					h-1.5v-1.5h-1.5v-1.5h1.5v-1.5h1.5v1.5H18471.6z"/>
			</g>
		</g>
	</g>
</g>
</svg>
