<?xml version="1.0" encoding="utf-8"?>
<!-- Generator: Adobe Illustrator 22.1.0, SVG Export Plug-In . SVG Version: 6.00 Build 0)  -->
<svg version="1.1" id="Layer_1" xmlns="http://www.w3.org/2000/svg" xmlns:xlink="http://www.w3.org/1999/xlink" x="0px" y="0px"
	 viewBox="0 0 24 24" style="enable-background:new 0 0 24 24;" xml:space="preserve">
<style type="text/css">
	.st0{fill:rgba(255, 255, 255, 0);}
	.st1{fill:#FFF;}
</style>
<title>instagram-20</title>
<desc>Created with Sketch.</desc>
<g id="combined">
	<g id="instagram-20">
		<g>
			<g transform="translate(-19246.000000, -1647.000000)">
				<rect id="Background" x="19246" y="1647" class="st0" width="24" height="24"/>
				<g id="Group" transform="translate(3.000000, 3.000000)">
					<path id="Shape" class="st1" d="M19255,1648.6c2.4,0,2.7,0,3.6,0.1c1,0,2,0.3,2.7,1c0.7,0.7,0.9,1.7,1,2.7
						c0,0.9,0.1,1.2,0.1,3.6s0,2.7-0.1,3.6c0,1-0.3,2-1,2.7c-0.7,0.7-1.7,0.9-2.7,1c-0.9,0-1.2,0.1-3.6,0.1s-2.7,0-3.6-0.1
						c-1,0-2-0.3-2.7-1c-0.7-0.7-0.9-1.7-1-2.7c0-0.9-0.1-1.2-0.1-3.6s0-2.7,0.1-3.6c0-1,0.3-2,1-2.7c0.7-0.7,1.7-0.9,2.7-1
						C19252.3,1648.6,19252.6,1648.6,19255,1648.6z M19255,1647c-2.4,0-2.8,0-3.7,0.1c-1.5,0.1-2.7,0.4-3.8,1.5s-1.4,2.3-1.5,3.8
						c0,1-0.1,1.3-0.1,3.7s0,2.8,0.1,3.7c0.1,1.5,0.4,2.7,1.5,3.8s2.3,1.4,3.8,1.5c1,0,1.3,0.1,3.7,0.1s2.8,0,3.7-0.1
						c1.5-0.1,2.7-0.4,3.8-1.5s1.4-2.3,1.5-3.8c0-1,0.1-1.3,0.1-3.7s0-2.8-0.1-3.7c-0.1-1.5-0.4-2.7-1.5-3.8s-2.3-1.4-3.8-1.5
						C19257.8,1647,19257.4,1647,19255,1647z"/>
					<path id="Shape_1_" class="st1" d="M19255,1651.4c-2.6,0-4.6,2.1-4.6,4.6s2.1,4.6,4.6,4.6s4.6-2.1,4.6-4.6
						S19257.6,1651.4,19255,1651.4z M19255,1659c-1.7,0-3-1.3-3-3s1.3-3,3-3s3,1.3,3,3S19256.7,1659,19255,1659z"/>
					<circle id="Oval" class="st1" cx="19259.8" cy="1651.2" r="1.1"/>
				</g>
			</g>
		</g>
	</g>
</g>
</svg>
