<?xml version="1.0" encoding="utf-8"?>
<!-- Generator: Adobe Illustrator 22.1.0, SVG Export Plug-In . SVG Version: 6.00 Build 0)  -->
<svg version="1.1" id="Layer_1" xmlns="http://www.w3.org/2000/svg" xmlns:xlink="http://www.w3.org/1999/xlink" x="0px" y="0px"
	 viewBox="0 0 24 24" style="enable-background:new 0 0 24 24;" xml:space="preserve">
<style type="text/css">
	.st0{fill:rgba(255, 255, 255, 0);}
	.st1{fill:#FFFFFF;}
</style>
<title>linkedin-20</title>
<desc>Created with Sketch.</desc>
<g id="combined">
	<g id="linkedin-20">
		<g>
			<g transform="translate(-18850.000000, -1647.000000)">
				<rect id="Background" x="18850" y="1647" class="st0" width="24" height="24"/>
				<g id="Group" transform="translate(4.750000, 5.000000)">
					<path id="Shape" class="st1" d="M18853.5,1661h-3.5v-9.1h3.5V1661z M18859.8,1654.7c-0.8,0-1.4,0.6-1.4,1.4v4.9h-3.5v-9.1h3.5
						v1c0.8-0.7,1.8-1,2.8-1c2.1,0,3.5,1.5,3.5,4.4v4.7h-3.5v-4.9C18861.2,1655.3,18860.6,1654.7,18859.8,1654.7z M18853.5,1648.8
						c0,1-0.8,1.8-1.8,1.8s-1.8-0.8-1.8-1.8s0.8-1.8,1.8-1.8c0.5,0,0.9,0.2,1.2,0.5C18853.3,1647.8,18853.5,1648.3,18853.5,1648.8z"
						/>
				</g>
			</g>
		</g>
	</g>
</g>
</svg>
