<?xml version="1.0" encoding="utf-8"?>
<!-- Generator: Adobe Illustrator 22.1.0, SVG Export Plug-In . SVG Version: 6.00 Build 0)  -->
<svg version="1.1" id="Layer_1" xmlns="http://www.w3.org/2000/svg" xmlns:xlink="http://www.w3.org/1999/xlink" x="0px" y="0px"
	 viewBox="0 0 24 24" style="enable-background:new 0 0 24 24;" xml:space="preserve">
<style type="text/css">
	.st0{fill:rgba(255, 255, 255, 0);}
	.st1{fill:#FFFFFF;}
</style>
<title>moto-forums-20</title>
<desc>Created with Sketch.</desc>
<g id="moto-forums-20">
	<g>
		<g transform="translate(-19114.000000, -1647.000000)">
			<rect x="19114" y="1647" class="st0" width="24" height="24"/>
			<rect id="Background" x="19114" y="1647" class="st0" width="24" height="24"/>
			<g id="Group" transform="translate(4.000000, 4.000000)">
				<path id="Fill-60" class="st1" d="M19126.3,1659.4c0,0-0.4-1.6-0.9-2.6c-0.3-0.5-0.8-0.9-1.4-0.9c-0.5,0-0.9,0.2-1.3,0.9
					c-0.3,0.4-0.8,1.5-0.8,1.5s-0.5-1.1-0.8-1.5c-0.5-0.7-0.9-0.9-1.3-0.9c-0.7,0-1.1,0.4-1.5,0.9c-0.6,1-0.9,2.6-0.9,2.6h-0.5
					l2.8-9.2l2.2,7.2l0,0l0,0l2.2-7.2l2.8,9.2H19126.3z M19121.8,1647.4c-4.3,0-7.8,3.5-7.8,7.8c0,4.3,3.5,7.8,7.8,7.8
					c4.3,0,7.8-3.5,7.8-7.8C19129.6,1650.9,19126.2,1647.4,19121.8,1647.4z"/>
			</g>
		</g>
	</g>
</g>
</svg>
