<?xml version="1.0" encoding="utf-8"?>
<!-- Generator: Adobe Illustrator 22.1.0, SVG Export Plug-In . SVG Version: 6.00 Build 0)  -->
<svg version="1.1" id="Layer_1" xmlns="http://www.w3.org/2000/svg" xmlns:xlink="http://www.w3.org/1999/xlink" x="0px" y="0px"
	 viewBox="0 0 24 24" style="enable-background:new 0 0 24 24;" xml:space="preserve">
<style type="text/css">
	.st0{fill:rgba(255, 255, 255, 0);}
	.st1{fill:#FFFFFF;}
</style>
<title>periscope-20</title>
<desc>Created with Sketch.</desc>
<g id="periscope-20">
	<g>
		<g transform="translate(-18982.000000, -1435.000000)">
			<rect x="18982" y="1435" class="st0" width="24" height="24"/>
			<rect id="Background" x="18982" y="1435" class="st0" width="24" height="24"/>
			<g id="Group-8" transform="translate(6.000000, 4.000000)">
				<path id="Shape" class="st1" d="M18994.5,1441.2c0,4.6-5,9.8-6.2,9.8s-6.2-5.1-6.2-9.8c0-3.5,2.8-6.2,6.2-6.2
					S18994.5,1437.8,18994.5,1441.2z M18988.2,1437.5c-0.3,0-0.6,0-0.9,0.1c0.5,0.2,0.9,0.8,0.9,1.4c0,0.8-0.7,1.5-1.5,1.5
					c-0.8,0-1.5-0.6-1.5-1.4c-0.5,0.6-0.7,1.4-0.7,2.2c0,2.1,1.7,3.8,3.8,3.8s3.8-1.7,3.8-3.8S18990.3,1437.5,18988.2,1437.5z"/>
			</g>
		</g>
	</g>
</g>
</svg>
