<?xml version="1.0" encoding="utf-8"?>
<!-- Generator: Adobe Illustrator 22.1.0, SVG Export Plug-In . SVG Version: 6.00 Build 0)  -->
<svg version="1.1" id="Layer_1" xmlns="http://www.w3.org/2000/svg" xmlns:xlink="http://www.w3.org/1999/xlink" x="0px" y="0px"
	 viewBox="0 0 24 24" style="enable-background:new 0 0 24 24;" xml:space="preserve">
<style type="text/css">
	.st0{fill:rgba(255, 255, 255, 0);}
	.st1{fill:#FFFFFF;}
</style>
<title>twitter-20</title>
<desc>Created with Sketch.</desc>
<g id="combined">
	<g id="twitter-20">
		<g>
			<g transform="translate(-18718.000000, -1647.000000)">
				<rect id="Background" x="18718" y="1647" class="st0" width="24" height="24"/>
				<g id="Group" transform="translate(3.750000, 4.250000)">
					<path id="Shape" class="st1" d="M18734.5,1649.7l-1.5-0.4l0.8-1.5l-1.8,0.5c-1-0.9-2.4-1.2-3.6-0.6s-2,1.8-2,3.1v0.8
						c-2.7,0.5-5-0.9-7.1-3.4c-0.4,2,0,3.5,1.1,4.5l-2.2-0.4c0.3,1.6,1,2.8,3,3l-1.9,0.8c0.8,1.5,1.9,1.7,3.8,1.9
						c-1.4,1-3.1,1.5-4.9,1.5c9.6,4.3,15-2,15-7.5v-1L18734.5,1649.7z"/>
				</g>
			</g>
		</g>
	</g>
</g>
</svg>
