<?xml version="1.0" encoding="utf-8"?>
<!-- Generator: Adobe Illustrator 22.1.0, SVG Export Plug-In . SVG Version: 6.00 Build 0)  -->
<svg version="1.1" id="Layer_1" xmlns="http://www.w3.org/2000/svg" xmlns:xlink="http://www.w3.org/1999/xlink" x="0px" y="0px"
	 viewBox="0 0 24 24" style="enable-background:new 0 0 24 24;" xml:space="preserve">
<style type="text/css">
	.st0{fill:rgba(255, 255, 255, 0);}
	.st1{fill:#FFFFFF;}
</style>
<title>youtube-20</title>
<desc>Created with Sketch.</desc>
<g id="combined">
	<g id="youtube-20">
		<g>
			<g transform="translate(-18982.000000, -1647.000000)">
				<rect id="Background" x="18982" y="1647" class="st0" width="24" height="24"/>
				<g id="Group" transform="translate(3.000000, 6.250000)">
					<path id="Shape" class="st1" d="M18999.6,1649.6c0-0.7-0.3-1.3-0.8-1.8c-0.5-0.5-1.1-0.8-1.8-0.8h-12.1c-0.7,0-1.3,0.3-1.8,0.8
						c-0.5,0.5-0.8,1.1-0.8,1.8v6.8c0,0.7,0.3,1.3,0.8,1.8c0.5,0.5,1.1,0.8,1.8,0.8h12.1c0.7,0,1.3-0.3,1.8-0.8
						c0.5-0.5,0.8-1.1,0.8-1.8V1649.6z M18989.1,1656v-6.5l5.1,3.2L18989.1,1656z"/>
				</g>
			</g>
		</g>
	</g>
</g>
</svg>
