<svg xmlns="http://www.w3.org/2000/svg" width="307" height="31" viewBox="0 0 307 31">
    <defs>
        <filter id="a" width="104.6%" height="221.9%" x="-2.3%" y="-32.8%" filterUnits="objectBoundingBox">
            <feOffset dy="18" in="SourceAlpha" result="shadowOffsetOuter1"/>
            <feGaussianBlur in="shadowOffsetOuter1" result="shadowBlurOuter1" stdDeviation="10"/>
            <feColorMatrix in="shadowBlurOuter1" result="shadowMatrixOuter1" values="0 0 0 0 0 0 0 0 0 0 0 0 0 0 0 0 0 0 0.02 0"/>
            <feMerge>
                <feMergeNode in="shadowMatrixOuter1"/>
                <feMergeNode in="SourceGraphic"/>
            </feMerge>
        </filter>
    </defs>
    <g fill="none" fill-rule="nonzero" filter="url(#a)" transform="translate(-11 -16)">
        <g fill="#231F20">
            <path d="M293.418 37.172c-2.54-.002-3.96-.845-3.963-2.61 0-.233.022-.48.073-.741l.008-.046h1.655l-.016.066a1.898 1.898 0 0 0-.054.44c.002 1.031 1 1.63 2.69 1.635 2.088 0 3.444-.822 3.726-1.89.032-.118.046-.22.046-.317.024-.98-1.612-1.103-3.298-1.31-1.666-.212-3.387-.542-3.394-2.124 0-.223.034-.466.108-.737.532-1.978 2.517-3.105 5.286-3.103 1.892.002 3.797.511 3.803 2.358 0 .204-.023.423-.073.66l-.01.044h-1.65l.012-.066c.017-.107.026-.21.026-.304-.003-1.103-1.198-1.433-2.709-1.434-1.427-.002-2.812.709-3.1 1.79-.027.097-.04.191-.04.287.002.406.266.784 1.227.958l3.594.643c1.275.222 1.88.903 1.877 1.827 0 .22-.034.456-.1.703-.547 2.047-2.71 3.27-5.72 3.27h-.004zM283.392 36.906l-3.845-8.543-2.293 8.543h-1.572l2.74-10.207h2.066l3.847 8.544 2.282-8.502.012-.042h1.571l-2.74 10.207zM272.902 31.792c-.662 2.465-2.784 4.125-5.21 4.125-1.987-.004-3.147-1.1-3.152-2.848 0-.385.059-.804.176-1.248.665-2.467 2.79-4.126 5.212-4.126 1.987.006 3.147 1.098 3.153 2.847 0 .386-.06.804-.179 1.25m.87-4.186c-.712-.711-1.845-1.17-3.534-1.17-4.273 0-6.518 2.933-7.166 5.356a6.012 6.012 0 0 0-.215 1.559c0 .984.28 1.943.994 2.654.71.71 1.844 1.17 3.533 1.169h.002c4.27.002 6.514-2.932 7.164-5.353a6.106 6.106 0 0 0 .214-1.558c0-.986-.282-1.945-.992-2.657M257.227 36.912l2.733-10.167.008-.04h1.572l-2.742 10.207zM248.81 36.912l2.38-8.866h-4.284l.36-1.341h10.141l-.36 1.341h-4.286l-2.38 8.866zM237.257 37.176c-2.285-.004-3.789-1.02-3.793-3.029 0-.416.064-.877.198-1.375l1.63-6.069h1.57l-1.654 6.168c-.099.365-.149.703-.149 1.01.006 1.287.834 2.029 2.505 2.036 2.065-.002 3.519-1.17 4.035-3.076l1.633-6.096.012-.042h1.57l-1.633 6.096c-.78 2.902-3.157 4.377-5.918 4.377h-.006zM222.172 36.906l2.73-10.165.01-.042h1.572l-2.405 8.95h7.593l-.337 1.257zM214.154 35.92c2.424 0 4.55-1.66 5.21-4.125.119-.447.178-.866.178-1.252-.006-1.747-1.165-2.839-3.149-2.844-2.428 0-4.55 1.659-5.212 4.123a4.776 4.776 0 0 0-.178 1.252c.004 1.747 1.162 2.841 3.15 2.845zm-.308 1.26c-1.688 0-2.823-.461-3.534-1.172-.712-.711-.994-1.671-.994-2.656 0-.522.08-1.052.214-1.557.65-2.422 2.896-5.356 7.167-5.356 1.687 0 2.822.46 3.534 1.173.71.71.992 1.668.992 2.654 0 .523-.078 1.05-.213 1.556-.65 2.423-2.893 5.357-7.165 5.357h-.001zM201.045 37.172c-2.543-.002-3.962-.846-3.966-2.612 0-.233.024-.478.074-.74l.01-.045h1.653l-.015.066a1.847 1.847 0 0 0-.055.438c.003 1.034 1.002 1.633 2.69 1.635 2.089.002 3.443-.82 3.727-1.888.031-.118.045-.22.045-.317.025-.98-1.613-1.103-3.298-1.31-1.666-.211-3.386-.54-3.394-2.124 0-.223.035-.466.11-.737.529-1.978 2.514-3.105 5.285-3.103 1.892.002 3.797.511 3.802 2.358 0 .204-.023.423-.073.66l-.01.044h-1.648l.012-.065c.016-.108.026-.21.026-.304-.004-1.102-1.199-1.434-2.71-1.435-1.427-.002-2.813.707-3.1 1.79a1.054 1.054 0 0 0-.042.287c.003.406.267.784 1.227.958l3.596.643c1.274.222 1.879.903 1.877 1.825 0 .223-.036.458-.1.704-.55 2.048-2.712 3.272-5.718 3.272h-.005zM188.774 26.752h-4.705l-6.82 10.105h3.39l1.164-1.76.033-.049h4.817v.05l.432 1.76h3.988l-2.299-10.106zm-2.73 5.943h-2.569l-.055-.022 1.987-2.963.68 2.963-.044.022zM168.209 26.804h3.871l-1.857 7.292h6.288l-.734 2.762h-10.164zM165.253 30.206c-.546-2.773-3.82-3.827-6.75-3.827-.797.006-1.667.096-2.402.241-2.972.6-6.759 3.295-6.098 6.784.554 2.92 4.522 4.496 8.95 3.622 4.18-.798 6.9-4.002 6.3-6.82m-6.227 4.087c-1.705.881-4.319.584-4.625-1.176-.309-1.685 1.006-3.373 2.092-3.77.917-.326 1.287-.404 1.98-.39 1.22.099 2.411.642 2.608 1.568.563 2.776-2.39 3.945-2.055 3.768M148.79 29.41c.297-2.408-2.49-2.607-2.49-2.607h-9.64l-2.864 10.055h3.736l.856-3.022 2.989.053c1.083-.11 1.134.65 1.134.65s-.016.68-.09 1.389c-.048.783.69.911.69.911h4.06c-.324-.26-.33-.77-.33-1.099 0-.255.42-.863.281-1.826-.094-.842-1.045-1.053-1.182-1.167-.122-.051.04-.197.04-.197s2.563-.729 2.81-3.14m-5.136 1.646h-4.31l.505-1.938 4.147.032s.81-.063.748.766c-.056.956-1.09 1.14-1.09 1.14M133.6 30.206c-.553-2.773-3.816-3.827-6.758-3.827-.784.006-1.68.096-2.385.241-2.993.6-6.79 3.295-6.138 6.784.572 2.92 4.534 4.496 8.986 3.622 4.169-.798 6.882-4.002 6.296-6.82m-6.222 4.087c-1.724.881-4.37.584-4.638-1.176-.296-1.685 1.019-3.373 2.11-3.77.748-.26 1.391-.404 1.968-.326 1.197 0 2.406.578 2.579 1.504.61 2.776-2.378 3.945-2.02 3.768M106.248 26.752l12.52.052-.75 3.232h-4.296l-1.768 6.821h-3.956l1.64-6.797h-4.241zM104.508 30.206c-.582-2.773-3.85-3.827-6.809-3.827-.766.006-1.662.096-2.362.241-3.009.6-6.796 3.295-6.131 6.784.548 2.92 4.514 4.496 8.962 3.622 4.18-.798 6.9-4.002 6.34-6.82m-6.25 4.087c-1.73.881-4.346.584-4.637-1.176-.308-1.685 1.018-3.373 2.103-3.77.767-.26 1.393-.404 1.953-.326 1.22 0 2.445.578 2.6 1.504.593 2.776-2.393 3.945-2.018 3.768M70.33 36.858l2.948-10.055h5.097l1.275 4.274 3.704-4.324h5.393l-2.809 10.086-4.078.019 1.494-5.206-4.71 5.206h-2.038l-1.466-5.546-1.638 5.546z"/>
        </g>
        <path fill="#FFF" d="M45.173 47.667c-8.217 0-14.9-6.69-14.9-14.91 0-8.204 6.683-14.88 14.9-14.88 8.21 0 14.891 6.676 14.891 14.88 0 8.22-6.682 14.91-14.891 14.91"/>
        <path fill="#231F20" d="M53.855 39.847s-.699-3.116-1.814-4.987c-.61-.99-1.545-1.82-2.802-1.787-.897.011-1.662.48-2.607 1.821-.585.81-1.464 2.85-1.464 2.85s-.879-2.04-1.465-2.85c-.96-1.341-1.723-1.81-2.602-1.821-1.264-.032-2.196.796-2.815 1.787-1.112 1.87-1.805 4.987-1.805 4.987h-1.017l5.456-17.9 4.221 13.974.027.032.034-.032 4.209-13.973 5.457 17.9h-1.013zM45.173 17.7c-8.327 0-15.08 6.753-15.08 15.059 0 8.334 6.753 15.087 15.08 15.087 8.321 0 15.07-6.753 15.07-15.087 0-8.256-6.638-15.059-15.07-15.059z"/>
    </g>
</svg>
